<svg version="1.1" id="Layer_1" xmlns="http://www.w3.org/2000/svg" x="0" y="0" viewBox="0 0 167.3 68.4" xml:space="preserve"><style>.st0{fill:#8dadd8}.st1{fill:#eecc7b}.st2{fill:#303b50}</style><g id="Layer_2_1_"><g id="Layer_1-2"><path class="st0" d="M80.4 0c-12 0-21.8 9.8-21.8 21.8v27.5h27.5c12 0 21.8-9.8 21.8-21.8V0H80.4z"/><path class="st1" d="M74.7 19.9l8.1-1.5 6.5 1.8-2.4 12.5-4.1.9-5.6-1z"/><path class="st2" d="M80.4 2.9c-10.5 0-19.1 8.5-19.1 19v24.8h17.9V45c0-1.4-.7-2.7-1.9-3.4l-.2-.1c-.2-.2-.4-.4-.4-.7v-1.4l5.9 1 5.9-1v1.4c0 .3-.1.6-.4.7l-.1.1c-1.2.7-1.9 2-1.9 3.4v1.7c10.5 0 19-8.5 19-19V2.9H80.4zm-6.9 11.6c0-.3.2-.5.4-.6l2.7-1.1c.8-.3 1.4-1 1.7-1.9.1-.4.4-.8.8-1l2.5-1.1c-.5-.4-.8-.9-.8-1.6 0-1.1.9-2 2.1-1.9.4 0 .7.1 1.1.3.2.1.3.3.4.4.6.9.4 2.1-.4 2.7l2.5 1.1c.4.2.7.6.8 1 .2.9.8 1.6 1.7 1.9l2.7 1.1c.3.1.4.4.4.6v1L83 13.5h-.1l-9.2 1.9-.2-.9zm17.6 22.2c0 .6-.4 1-.9 1.1l-7.4 1.4-7.4-1.4c-.6-.1-1-.6-1-1.1v-1.2c0-.2.2-.3.3-.3h.1l8 1.3 8-1.3c.2 0 .4.1.4.3v.1l-.1 1.1zM89.9 34c0 .1-.1.2-.3.3l-6.8 1.2h-.3l-6.8-1.2c-.1 0-.2-.1-.3-.3l-2.3-13c0-.2.1-.3.3-.4l.4-.1s.4-.1.5.3L76.5 33c0 .1.1.2.3.3l5.8 1h.3l5.8-1c.1 0 .2-.1.3-.3l2.2-12.3c0-.2.2-.3.4-.3l.5.1c.2 0 .3.2.3.4L89.9 34zm-10.2-6.7c0-2.7 2.4-5.1 3-5.1s3 2.4 3 5.1c0 .6-.2 1.2-.6 1.6.1-.2.1-.5.2-.7-.1-1.8-1.1-3.4-2.6-4.3-1.5.9-2.5 2.5-2.6 4.3.1.8.5 1.5 1.2 1.8-.2-.2-.3-.5-.3-.8.2-1.3.7-2.5 1.6-3.5.1-.1.2-.1.2 0 .8 1 1.3 2.1 1.6 3.3 0 .5-.2 1-.6 1.4-.7.7-1.1 1.6-1.1 2.6l-4.9-.8c-.1 0-.2-.1-.3-.3l-1.8-10.2-.3-1.5 7.3-1.2s.3 1-1.6 2.9-1.4 5.5-1.4 5.4zm13.2-7.8l-10.2-1.7-10.2 1.7c-.3.1-.7-.2-.7-.5v-1.1c0-.5.3-.9.8-1l10.1-2.1 10.1 2.1c.5.1.8.5.8 1v1c0 .3-.3.6-.7.6z"/><path class="st0" d="M49.4.1H21.9C9.9.1.2 9.8.1 21.9v27.4h27.4c12 0 21.7-9.7 21.8-21.7V.1z"/><path class="st2" d="M21.9 3c-10.5 0-19 8.5-19 19v24.8h24.7c10.5 0 19-8.5 19-19V3H21.9zm-.8 16.3c.5 0 1.1.1 1.5.4 1.1.6 2.4 1 3.6 1.1 1.2.1 2.3.1 3.5-.2.1 0 1.7-.5.7-.9-.3-.1-.6-.2-.8-.2 0 0-.2-.1 0-.1 1.2.1 2.3.4 3.4.8.4.2 1 .4 1 1 0 .3-.1.6-.1.9-.7 2.6-4.6 5.9-9.5 5.9-5.5 0-9.4-4.2-9.4-6.8 0-1 2.6-1.6 6.1-1.9zm17.1 11c-.1.3-.3.5-.5.8-.9 1.3-2.1 2.3-3.4 3.2-1.4.9-2.8 1.5-4.4 2-1.8.5-3.6.8-5.5.8-8 0-13.4-5.2-13.4-8.2 0-.9 2.1-1.6 6-1.9.9-.1 1.8.1 2.5.6 2.1 1.2 4.4 1.9 6.8 2 2.1.1 4.1 0 6.2-.4.3-.1 1-.2 1.7-.4l.2-.1.3-.1c1.8-.6-1.5-1.4-1.5-1.4H33s-.1 0-.2-.1.1 0 .1 0c.9.1 1.9.2 2.8.4.8.1 1.6.4 2.3.8.1.1.3.2.3.4v.1c.2.6.1 1.1-.1 1.5z"/><circle class="st1" cx="24.8" cy="15.5" r="4.2"/><path class="st0" d="M166.2 0h-27.5c-12 0-21.8 9.8-21.8 21.8v27.5h27.5c12 0 21.8-9.8 21.8-21.8V0z"/><path class="st2" d="M138.7 3c-10.5 0-19 8.5-19 19v24.8h24.7c10.5 0 19-8.5 19-19V3h-24.7z"/><path class="st1" d="M135.3 15.6c-1.3 1.6-2.5 3.2-3.7 4.9-.2.3-.1.6.1.9 3.5 2.8 6.8 6 9.6 9.5.2.3.7.3.9.1l.1-.1c1.1-1.4 2.3-2.8 3.6-4.1.2-.2.2-.6.1-.8-2.9-3.8-6.2-7.3-9.8-10.4-.2-.3-.7-.3-.9 0z"/><path class="st0" d="M147.4 15.5c-1.5 1.3-3 2.7-4.3 4.2-.2.2-.2.6 0 .8 3.4 4.1 6.5 8.5 9.3 13.1.2.3.6.4.9.2h.1c1.3-1.2 2.7-2.3 4.2-3.3.3-.2.3-.5.2-.8-2.6-5-5.7-9.8-9.3-14.1-.4-.3-.8-.3-1.1-.1zm-17.3 7.1c-1.5 2.3-2.9 4.7-4.1 7.1-.1.3 0 .6.2.8 1.4 1 2.8 2.1 4.1 3.3.3.2.7.2 1-.1v-.1c1.2-2.3 2.6-4.5 4.2-6.6.2-.3.1-.6-.1-.8-1.4-1.3-2.8-2.6-4.3-3.7-.3-.3-.7-.3-1 .1 0-.1 0 0 0 0z"/><path d="M5.9 60.2H3.7v6H2.2v-6H0V59h5.9v1.2zm2.3 1.3c.3-.4.9-.7 1.4-.7 1.2 0 1.8.7 1.8 2v3.5H10v-3.4c0-.2-.1-.5-.2-.7-.2-.2-.4-.2-.7-.2-.4 0-.7.2-.9.5v3.8H6.8v-7.6h1.4v2.8zm7 4.8c-.7 0-1.4-.2-1.9-.7-.5-.5-.8-1.2-.7-1.9v-.1c0-.5.1-1 .3-1.5.2-.4.5-.8.9-1 .4-.2.8-.4 1.3-.3.7 0 1.3.2 1.7.7.5.6.7 1.3.6 2v.5H14c0 .3.2.6.4.8.2.2.6.3.9.3.5 0 1-.2 1.3-.6l.7.8c-.2.3-.5.6-.9.7-.4.2-.8.3-1.2.3zm-.2-4.4c-.3 0-.5.1-.7.3-.2.2-.3.5-.3.8h2v-.1c0-.3-.1-.5-.3-.7-.2-.2-.4-.3-.7-.3zm8.2-2.9l1.8 5.3 1.9-5.3h2v7.2h-1.5v-2l.1-3.4-2 5.4h-1l-2-5.4.1 3.4v2h-1.5V59h2.1zm10.1 7.2c-.1-.2-.1-.3-.1-.5-.3.4-.8.6-1.4.6-.5 0-.9-.1-1.3-.4-.3-.3-.5-.7-.5-1.2s.2-1 .6-1.3c.6-.3 1.2-.5 1.9-.4h.7v-.3c0-.2-.1-.4-.2-.6-.2-.2-.4-.2-.6-.2-.2 0-.4 0-.6.2-.1.1-.2.3-.2.5h-1.4c0-.3.1-.6.3-.9.2-.3.5-.5.8-.6.4-.2.8-.2 1.2-.2.6 0 1.1.1 1.6.5.4.4.6.9.6 1.4V65c0 .4 0 .8.2 1.2v.1h-1.6zm-1.1-1c.2 0 .4 0 .6-.1.2-.1.3-.2.4-.4v-.9h-.5c-.7 0-1.1.3-1.1.8v.1c0 .2.1.3.2.4 0 .1.2.2.4.1zm3.7-5.7c0-.2.1-.4.2-.5.2-.1.4-.2.6-.2.2 0 .4.1.6.2.3.3.3.8 0 1.1-.2.1-.4.2-.6.2-.2 0-.4-.1-.6-.2-.2-.2-.2-.4-.2-.6zm1.5 6.7H36v-5.4h1.4v5.4zm2.7-5.3v.6c.4-.5.9-.7 1.5-.7.5 0 .9.1 1.3.5.3.4.5 1 .4 1.5v3.5h-1.4v-3.4c0-.2 0-.5-.2-.7-.2-.2-.4-.2-.7-.2-.4 0-.7.2-.9.5v3.8h-1.4v-5.4h1.4zm7 5.4c-.7 0-1.4-.2-1.9-.7-.5-.5-.8-1.2-.7-1.9v-.1c0-.5.1-1 .3-1.5.2-.4.5-.8.9-1 .4-.2.8-.4 1.3-.3.7 0 1.3.2 1.7.7.5.6.7 1.3.6 2v.5h-3.4c0 .3.2.6.4.8.2.2.6.3.9.3.5 0 1-.2 1.3-.6l.7.8c-.2.3-.5.6-.9.7-.3.2-.7.3-1.2.3zm-.1-4.4c-.3 0-.5.1-.7.3-.2.2-.3.5-.3.8h2v-.1c0-.3-.1-.5-.3-.7-.2-.2-.4-.3-.7-.3zm11.8 1.9c0 .7-.3 1.4-.8 1.8-.6.5-1.3.7-2 .7-.8 0-1.6-.3-2.2-.9-.6-.7-.9-1.6-.8-2.6v-.4c0-.6.1-1.3.4-1.8.2-.5.6-.9 1-1.2 1.1-.6 2.6-.5 3.6.2.5.5.8 1.2.9 1.9h-1.5c0-.4-.1-.7-.4-1-.3-.2-.6-.3-1-.3s-.9.2-1.1.5c-.3.5-.4 1.1-.4 1.7v.5c0 .6.1 1.2.4 1.7.2.4.7.6 1.1.5.4 0 .7-.1 1-.3.3-.3.4-.6.4-1h1.4zm.9-.3c0-.5.1-1 .3-1.4.2-.4.5-.8.9-1 .4-.2.9-.4 1.3-.3.7 0 1.3.2 1.8.7.5.5.8 1.1.8 1.8v.4c0 .7-.2 1.4-.7 2-1 1-2.7 1-3.7 0-.5-.7-.8-1.4-.7-2.2zm1.4.1c0 .4.1.8.3 1.2.2.3.5.4.8.4.3 0 .6-.1.8-.4.2-.4.3-.8.3-1.3 0-.4-.1-.8-.3-1.2-.2-.3-.5-.4-.8-.4-.3 0-.6.1-.8.4-.2.4-.3.9-.3 1.3zm6.1-2.7l.1.6c.4-.5.9-.7 1.5-.7.6-.1 1.2.3 1.4.8.4-.5 1-.8 1.6-.8.5 0 1 .2 1.3.5.3.4.5 1 .4 1.5v3.4h-1.4v-3.4c0-.2 0-.5-.2-.7-.2-.2-.4-.2-.6-.2-.4 0-.8.2-.9.6v3.7H69v-3.4c0-.2 0-.5-.2-.7-.2-.2-.4-.2-.6-.2-.4 0-.7.2-.9.5v3.8h-1.5v-5.4h1.4zm9 0v.6c.4-.5 1-.7 1.6-.7.6 0 1.2.3 1.4.8.4-.5 1-.8 1.6-.8.5 0 1 .2 1.3.5.3.4.5 1 .4 1.5v3.4h-1.4v-3.4c0-.2 0-.5-.2-.7-.2-.2-.4-.2-.6-.2-.4 0-.8.2-.9.6v3.7H78v-3.4c0-.2 0-.5-.2-.7-.2-.2-.4-.2-.6-.2-.4 0-.7.2-.9.5v3.8h-1.5v-5.4h1.4zm10.9 4.8c-.4.4-.9.7-1.5.6-.5 0-1-.1-1.3-.5-.3-.4-.5-.9-.5-1.5v-3.5h1.4v3.5c0 .6.2.8.8.8.4 0 .8-.2 1-.5v-3.8h1.4v5.4h-1.3v-.5zm4-4.8v.6c.4-.5.9-.7 1.5-.7.5 0 .9.1 1.3.5.3.4.5 1 .4 1.5v3.5h-1.4v-3.4c0-.2 0-.5-.2-.7-.2-.2-.4-.2-.7-.2-.4 0-.7.2-.9.5v3.8h-1.4v-5.4h1.4zm4.5-1.4c0-.2.1-.4.2-.5.2-.1.4-.2.6-.2.2 0 .4.1.6.3.3.3.3.7 0 1-.2.1-.4.2-.6.2-.2 0-.4-.1-.6-.2-.1-.2-.2-.4-.2-.6zm1.6 6.7h-1.4v-5.4h1.4v5.4zm3-6.7v1.3h.9v1h-.9v2.7c0 .1 0 .3.1.4.1.1.3.2.4.1h.4v1.1c-.3.1-.6.1-.9.1-.8.1-1.4-.4-1.5-1.2v-3.2H98v-1.1h.8v-1.3h1.4zm4 4.7l1-3.3h1.5l-2.2 6.2-.1.3c-.3.7-.9 1.1-1.6 1.1-.2 0-.4 0-.6-.1v-1.1h.2c.2 0 .4 0 .6-.1.1-.1.3-.2.3-.4l.2-.4-1.9-5.4h1.6l1 3.2zm6.1 2V59h2.5c.7 0 1.4.1 2 .5.5.4.7.9.7 1.5 0 .3-.1.7-.3.9-.2.3-.5.5-.8.6.4.1.7.3.9.6.2.3.3.6.3 1 .1.6-.2 1.2-.6 1.6-.6.4-1.2.6-1.9.6h-2.8zm1.5-4.2h1.1c.8 0 1.1-.3 1.1-.9 0-.3-.1-.5-.3-.7-.3-.2-.6-.2-.9-.2h-1V62zm0 1.1v2h1.2c.3 0 .6-.1.8-.2.2-.2.3-.4.3-.7 0-.7-.3-1-1-1l-1.3-.1zm8.2 3.1c-.1-.2-.1-.3-.2-.5-.3.4-.8.6-1.3.6s-.9-.1-1.3-.4c-.3-.3-.5-.7-.5-1.2s.2-1 .6-1.3c.5-.3 1.2-.5 1.8-.4h.7v-.3c0-.2-.1-.4-.2-.6-.2-.2-.4-.2-.6-.2-.2 0-.4 0-.6.2-.1.1-.2.3-.2.5h-1.4c0-.3.1-.6.3-.9.2-.3.5-.5.8-.6.4-.2.8-.2 1.2-.2.6 0 1.1.1 1.6.5.4.4.6.9.6 1.4V65c0 .4.1.8.2 1.2v.1H120zm-1.2-1c.2 0 .4 0 .6-.1.2-.1.3-.2.4-.4v-.9h-.5c-.7 0-1.1.3-1.2.8v.1c0 .2.1.3.2.4.1.1.3.2.5.1zm5-4.3l.1.6c.4-.5.9-.7 1.5-.7.5 0 .9.1 1.3.5.3.4.5 1 .4 1.5v3.5h-1.4v-3.4c0-.2 0-.5-.2-.7-.2-.2-.4-.2-.7-.2-.4 0-.7.2-.9.5v3.8h-1.4v-5.4h1.3zm6.5 3.2l-.5.5v1.6h-1.4v-7.6h1.4v4.2l.3-.3 1.4-1.6h1.7l-1.9 2.2 2.1 3.1h-1.6l-1.5-2.1zm10.9-.8h-2.9v3h-1.5V59h4.7v1.2h-3.2v1.9h2.9v1.2zm4.2 2.9c-.1-.2-.1-.3-.1-.5-.3.4-.8.6-1.4.6-.5 0-.9-.1-1.3-.4-.3-.3-.5-.7-.5-1.2s.2-1 .6-1.3c.5-.3 1.2-.5 1.8-.5h.7v-.3c0-.2-.1-.4-.2-.6-.2-.2-.4-.2-.6-.2-.2 0-.4 0-.6.2-.1.1-.2.3-.2.5h-1.4c0-.3.1-.6.3-.9.2-.3.5-.5.8-.6.4-.2.8-.2 1.2-.2.6 0 1.1.1 1.6.5.4.4.6.9.6 1.4V65c0 .4 0 .8.2 1.2v.1h-1.5zm-1.1-1c.2 0 .4 0 .6-.1.2-.1.3-.2.4-.4v-.9h-.5c-.7 0-1.1.3-1.1.8v.1c0 .2.1.3.2.4 0 .1.2.2.4.1zm5-4.3v.6c.4-.5.9-.7 1.5-.7.6-.1 1.2.3 1.4.8.4-.5 1-.8 1.6-.8.5 0 1 .1 1.3.5.3.4.5 1 .4 1.5v3.4h-1.4v-3.4c0-.2 0-.5-.2-.7-.2-.2-.4-.2-.6-.2-.4 0-.8.2-.9.6v3.7H151v-3.4c0-.2 0-.5-.2-.7-.2-.2-.4-.2-.6-.2-.4 0-.7.2-.9.5v3.8H148v-5.4h1.3zm7.7-1.4c0-.2.1-.4.2-.5.3-.3.8-.3 1.2 0 .1.1.2.3.2.5s-.1.4-.2.5c-.2.1-.4.2-.6.2-.2 0-.4-.1-.6-.2-.1-.1-.2-.3-.2-.5zm1.5 6.7h-1.4v-5.4h1.4v5.4zm2.9 0H160v-7.6h1.4v7.6zm3.4-2l1-3.3h1.5l-2.2 6.2-.1.3c-.3.7-.9 1.1-1.6 1.1-.2 0-.4 0-.6-.1v-1.1h.2c.2 0 .4 0 .6-.1.1-.1.3-.2.3-.4l.2-.4-1.9-5.4h1.5l1.1 3.2z" fill="#8cadd8"/></g></g></svg>