<svg version="1.1" id="Layer_1" xmlns="http://www.w3.org/2000/svg" x="0" y="0" viewBox="0 0 248.6 73.7" xml:space="preserve"><style>.st0{fill:#fff}</style><path class="st0" d="M123.7 28.4l-11 1.9.4 2.2 2.7 15.2c0 .2.2.4.4.4l7.4 1.2s-.1-2.2 1.7-3.8c.6-.5.9-1.3.8-2-.1-2-1.8-4.2-2.3-5-.1-.1-.3-.1-.4 0-.6.8-2.3 3.2-2.3 5.2 0 .5.2.9.4 1.2 0 0-1.8-.8-1.8-2.7 0-3.7 3.5-6.4 3.9-6.4s3.9 2.7 3.9 6.4c0 .4-.1.8-.2 1.1.5-.7.9-1.5.9-2.5 0-4.1-3.6-7.7-4.5-7.7s-4.5 3.6-4.5 7.7c0 .2-.7-5.4 2.2-8.1 2.8-2.7 2.3-4.3 2.3-4.3m12 24.3l-11.9 2-12-2c-.3 0-.6.2-.6.5V55c0 .8.6 1.5 1.4 1.7l11.1 2 11.1-2c.8-.2 1.4-.9 1.4-1.7v-1.8c0-.3-.2-.5-.5-.5"/><path class="st0" d="M108.6 25.3c-.7.1-1.2.7-1.2 1.4v1.5c0 .6.5 1 1.1.9l15.2-2.6 15.2 2.6c.6.1 1.1-.3 1.1-.9v-1.5c0-.7-.5-1.3-1.2-1.4l-15.2-3.2-15 3.2zm29 5.4l-.8-.1c-.3 0-.5.1-.6.4L133 49.2c0 .2-.2.4-.4.4l-8.7 1.5h-.4l-8.7-1.5c-.2 0-.4-.2-.4-.4L111.1 31c-.1-.6-.8-.4-.8-.4l-.6.1c-.3 0-.4.3-.4.6l3.5 19.5c0 .2.2.4.4.4l10.2 1.7h.4l10.2-1.7c.2 0 .4-.2.4-.4l3.5-19.5c.2-.3 0-.5-.3-.6"/><path class="st0" d="M122 13.2l-3.7 1.6c-.6.3-1 .8-1.2 1.4-.3 1.3-1.2 2.4-2.5 2.9l-4 1.6c-.4.2-.7.5-.7 1v1.5l13.7-2.9h.2l13.6 2.8v-1.5c0-.4-.3-.8-.7-1l-4-1.6c-1.2-.5-2.2-1.6-2.5-2.9-.1-.6-.6-1.2-1.1-1.4l-3.7-1.6c1.1-.9 1.6-2.5.6-4.1-.2-.3-.4-.5-.6-.6-2.3-1.4-4.7.2-4.7 2.4.1 1.1.6 1.9 1.3 2.4"/><path class="st0" d="M120.3 0c-18 0-32.6 14.6-32.6 32.6v41.1h41.1c18 0 32.6-14.6 32.6-32.6V0h-41.1zm37.1 41.4c0 15.7-12.8 28.5-28.5 28.5v-2.5c0-2.1 1.1-4 2.8-5.1l.3-.2c.4-.2.6-.6.6-1.1v-2l-8.8 1.5L115 59v2c0 .4.2.8.6 1.1l.3.2c1.7 1.1 2.8 3 2.8 5.1v2.5H91.8v-37c0-15.7 12.8-28.5 28.5-28.5h37l.1 37zm-107.8-.7c0 .1.2.1.2.1h.2s4.9 1.1 2.3 2c-.1 0-.3.1-.4.1-.1 0-.2.1-.3.1-1 .3-2.1.5-2.5.6-3 .6-6.2.8-9.2.6-3.8-.2-7.1-1.2-10.2-3-1.1-.7-2.5-1-3.8-.8-5.7.6-8.9 1.6-8.9 3 0 4.4 8 12.2 20 12.2 2.8 0 5.5-.4 8.1-1.2 2.3-.7 4.5-1.7 6.6-3 2-1.3 3.8-2.8 5.1-4.7.3-.4.5-.8.7-1.2.3-.6.6-1.4.5-2.1v-.3c-.1-.2-.3-.4-.5-.6-1-.7-2.3-1-3.5-1.2-1.4-.3-2.8-.5-4.2-.6-.1 0-.2-.1-.2 0"/><path class="st0" d="M22.8 31.7c0 3.9 5.8 10.1 14 10.1 7.3 0 13.1-4.9 14.2-8.8.1-.5.2-.9.2-1.4 0-.8-1-1.2-1.6-1.4-1.6-.7-3.4-.9-5-1.1-.4-.1-.1.1-.1.1.4.1.8.2 1.2.4 1.5.5-.9 1.2-1 1.3-1.7.4-3.5.4-5.2.2-1.8-.2-4.1-.9-5.4-1.7-.7-.4-1.5-.6-2.2-.5-5.2.4-9.1 1.3-9.1 2.8"/><path class="st0" d="M33.2.1C15.2.1.6 14.7.6 32.7v41.1h41.1c17.9 0 32.5-14.6 32.5-32.5V.1h-41zm37 41.4C70.2 57.2 57.5 70 41.7 70h-37V33c0-15.7 12.7-28.5 28.5-28.5h37v37z"/><path class="st0" d="M37.4 16.9c3.5 0 6.3 2.8 6.3 6.3s-2.8 6.3-6.3 6.3-6.3-2.8-6.3-6.3 2.9-6.3 6.3-6.3M207.5.1c-18 0-32.6 14.6-32.6 32.6v41.1H216c18 0 32.6-14.6 32.6-32.6V.1h-41.1zm37 41.4c0 15.7-12.8 28.5-28.5 28.5h-37V33c0-15.7 12.8-28.5 28.5-28.5h37v37z"/><path class="st0" d="M202.4 23.4c-2.3 2.7-3.6 4.4-5.5 7.3-.3.4-.2 1 .2 1.3 5.2 4.1 10.2 9.1 14.4 14.3.4.5 1.2.5 1.6 0 1.9-2.4 3.2-3.8 5.4-6.1.3-.3.4-.8.1-1.2-4.2-5.6-9.3-11-14.7-15.6-.5-.5-1.1-.5-1.5 0m18.1-.2c-2.6 2.3-4.1 3.8-6.5 6.2-.3.4-.4.9 0 1.2 5.3 6.5 9.6 12.5 13.9 19.6.3.5 1.1.7 1.5.2 2.2-2 3.7-3.2 6.2-5 .4-.3.5-.8.3-1.2-3.8-7.5-8.5-14.6-14-21.1-.3-.2-1-.2-1.4.1m-25.8 10.6c-2.6 4-4 6.4-6.2 10.7-.2.4-.1.9.3 1.2 2.5 1.8 4 3 6.1 4.9.5.4 1.3.3 1.6-.3 2.1-3.8 3.5-6.1 6.2-9.9.3-.4.2-.9-.1-1.2-2.3-2.2-3.9-3.6-6.4-5.6-.5-.4-1.2-.3-1.5.2"/></svg>