<?xml version="1.0" encoding="utf-8"?>
<!-- Generator: Adobe Illustrator 24.0.3, SVG Export Plug-In . SVG Version: 6.00 Build 0)  -->
<svg version="1.1" id="Layer_1" xmlns="http://www.w3.org/2000/svg" xmlns:xlink="http://www.w3.org/1999/xlink" x="0px" y="0px"
	 viewBox="0 0 167.3 68.4" style="enable-background:new 0 0 167.3 68.4;" xml:space="preserve">
<style type="text/css">
	.st0{fill:#8DADD8;}
	.st1{fill:#EECC7B;}
	.st2{fill:#303B50;}
	.st3{fill:#8CADD8;}
</style>
<title>MCB_MCBF_A</title>
<g id="Layer_2_1_">
	<g id="Layer_1-2">
		<path class="st0" d="M80.4,0c-12,0-21.8,9.8-21.8,21.8v27.5h27.5c12,0,21.8-9.8,21.8-21.8V0H80.4z"/>
		<polygon class="st1" points="74.7,19.9 82.8,18.4 89.3,20.2 86.9,32.7 82.8,33.6 77.2,32.6 		"/>
		<path class="st2" d="M80.4,2.9c-10.5,0-19.1,8.5-19.1,19c0,0,0,0,0,0v24.8h17.9V45c0-1.4-0.7-2.7-1.9-3.4l-0.2-0.1
			c-0.2-0.2-0.4-0.4-0.4-0.7v-1.4l5.9,1l5.9-1v1.4c0,0.3-0.1,0.6-0.4,0.7L88,41.6c-1.2,0.7-1.9,2-1.9,3.4v1.7l0,0
			c10.5,0,19-8.5,19-19V2.9H80.4z M73.5,14.5c0-0.3,0.2-0.5,0.4-0.6l2.7-1.1c0.8-0.3,1.4-1,1.7-1.9c0.1-0.4,0.4-0.8,0.8-1l2.5-1.1
			c-0.5-0.4-0.8-0.9-0.8-1.6c0-1.1,0.9-2,2.1-1.9c0.4,0,0.7,0.1,1.1,0.3c0.2,0.1,0.3,0.3,0.4,0.4c0.6,0.9,0.4,2.1-0.4,2.7l2.5,1.1
			c0.4,0.2,0.7,0.6,0.8,1c0.2,0.9,0.8,1.6,1.7,1.9l2.7,1.1c0.3,0.1,0.4,0.4,0.4,0.6v1l-9.1-1.9h-0.1l-9.2,1.9L73.5,14.5z M91.1,36.7
			c0,0.6-0.4,1-0.9,1.1l-7.4,1.4l-7.4-1.4c-0.6-0.1-1-0.6-1-1.1v-1.2c0-0.2,0.2-0.3,0.3-0.3c0,0,0,0,0.1,0l8,1.3l8-1.3
			c0.2,0,0.4,0.1,0.4,0.3c0,0,0,0,0,0.1L91.1,36.7z M89.9,34c0,0.1-0.1,0.2-0.3,0.3l-6.8,1.2c-0.1,0-0.2,0-0.3,0l-6.8-1.2
			c-0.1,0-0.2-0.1-0.3-0.3l-2.3-13c0-0.2,0.1-0.3,0.3-0.4l0.4-0.1l0,0c0,0,0.4-0.1,0.5,0.3l0,0L76.5,33c0,0.1,0.1,0.2,0.3,0.3l5.8,1
			c0.1,0,0.2,0,0.3,0l5.8-1c0.1,0,0.2-0.1,0.3-0.3l2.2-12.3c0-0.2,0.2-0.3,0.4-0.3l0.5,0.1c0.2,0,0.3,0.2,0.3,0.4L89.9,34z
			 M79.7,27.3c0-2.7,2.4-5.1,3-5.1s3,2.4,3,5.1c0,0.6-0.2,1.2-0.6,1.6c0.1-0.2,0.1-0.5,0.2-0.7c-0.1-1.8-1.1-3.4-2.6-4.3
			c-1.5,0.9-2.5,2.5-2.6,4.3c0.1,0.8,0.5,1.5,1.2,1.8c-0.2-0.2-0.3-0.5-0.3-0.8c0.2-1.3,0.7-2.5,1.6-3.5c0.1-0.1,0.2-0.1,0.2,0
			c0,0,0,0,0,0c0.8,1,1.3,2.1,1.6,3.3c0,0.5-0.2,1-0.6,1.4c-0.7,0.7-1.1,1.6-1.1,2.6l-4.9-0.8c-0.1,0-0.2-0.1-0.3-0.3l-1.8-10.2l0,0
			l-0.3-1.5l7.3-1.2c0,0,0.3,1-1.6,2.9S79.7,27.4,79.7,27.3z M92.9,19.5l-10.2-1.7l-10.2,1.7c-0.3,0.1-0.7-0.2-0.7-0.5
			c0,0,0-0.1,0-0.1v-1c0-0.5,0.3-0.9,0.8-1l10.1-2.1l10.1,2.1c0.5,0.1,0.8,0.5,0.8,1v1C93.6,19.2,93.3,19.5,92.9,19.5
			C92.9,19.5,92.9,19.5,92.9,19.5z"/>
		<path class="st0" d="M49.4,0.1H21.9c-12,0-21.7,9.7-21.8,21.8v27.4h27.4c12,0,21.7-9.7,21.8-21.7V0.1z"/>
		<path class="st2" d="M21.9,3c-10.5,0-19,8.5-19,19v24.8h24.7c10.5,0,19-8.5,19-19V3H21.9z M21.1,19.3c0.5,0,1.1,0.1,1.5,0.4
			c1.1,0.6,2.4,1,3.6,1.1c1.2,0.1,2.3,0.1,3.5-0.2c0.1,0,1.7-0.5,0.7-0.9c-0.3-0.1-0.6-0.2-0.8-0.2c0,0-0.2-0.1,0-0.1
			c1.2,0.1,2.3,0.4,3.4,0.8c0.4,0.2,1,0.4,1,1c0,0.3-0.1,0.6-0.1,0.9c-0.7,2.6-4.6,5.9-9.5,5.9c-5.5,0-9.4-4.2-9.4-6.8
			C15,20.2,17.6,19.6,21.1,19.3L21.1,19.3z M38.2,30.3c-0.1,0.3-0.3,0.5-0.5,0.8c-0.9,1.3-2.1,2.3-3.4,3.2c-1.4,0.9-2.8,1.5-4.4,2
			c-1.8,0.5-3.6,0.8-5.5,0.8c-8,0-13.4-5.2-13.4-8.2c0-0.9,2.1-1.6,6-1.9c0.9-0.1,1.8,0.1,2.5,0.6c2.1,1.2,4.4,1.9,6.8,2
			c2.1,0.1,4.1,0,6.2-0.4c0.3-0.1,1-0.2,1.7-0.4l0.2-0.1l0.3-0.1c1.8-0.6-1.5-1.4-1.5-1.4l0,0h-0.2c0,0-0.1,0-0.2-0.1s0.1,0,0.1,0
			c0.9,0.1,1.9,0.2,2.8,0.4c0.8,0.1,1.6,0.4,2.3,0.8c0.1,0.1,0.3,0.2,0.3,0.4l0,0c0,0,0,0.1,0,0.1C38.5,29.4,38.4,29.9,38.2,30.3
			L38.2,30.3z"/>
		<circle class="st1" cx="24.8" cy="15.5" r="4.2"/>
		<path class="st0" d="M166.2,0h-27.5c-12,0-21.8,9.8-21.8,21.8v0v27.5h27.5c12,0,21.8-9.8,21.8-21.8V0z"/>
		<path class="st2" d="M138.7,3c-10.5,0-19,8.5-19,19c0,0,0,0,0,0.1v24.7h24.7c10.5,0,19-8.5,19-19V3H138.7z"/>
		<path class="st1" d="M135.3,15.6c-1.3,1.6-2.5,3.2-3.7,4.9c-0.2,0.3-0.1,0.6,0.1,0.9c3.5,2.8,6.8,6,9.6,9.5
			c0.2,0.3,0.7,0.3,0.9,0.1c0,0,0.1-0.1,0.1-0.1c1.1-1.4,2.3-2.8,3.6-4.1c0.2-0.2,0.2-0.6,0.1-0.8c-2.9-3.8-6.2-7.3-9.8-10.4
			C136,15.3,135.5,15.3,135.3,15.6C135.3,15.6,135.3,15.6,135.3,15.6z"/>
		<path class="st0" d="M147.4,15.5c-1.5,1.3-3,2.7-4.3,4.2c-0.2,0.2-0.2,0.6,0,0.8c3.4,4.1,6.5,8.5,9.3,13.1
			c0.2,0.3,0.6,0.4,0.9,0.2c0,0,0,0,0.1,0c1.3-1.2,2.7-2.3,4.2-3.3c0.3-0.2,0.3-0.5,0.2-0.8c-2.6-5-5.7-9.8-9.3-14.1
			C148.1,15.3,147.7,15.3,147.4,15.5z"/>
		<path class="st0" d="M130.1,22.6c-1.5,2.3-2.9,4.7-4.1,7.1c-0.1,0.3,0,0.6,0.2,0.8c1.4,1,2.8,2.1,4.1,3.3c0.3,0.2,0.7,0.2,1-0.1
			c0,0,0,0,0-0.1c1.2-2.3,2.6-4.5,4.2-6.6c0.2-0.3,0.1-0.6-0.1-0.8c-1.4-1.3-2.8-2.6-4.3-3.7C130.8,22.2,130.4,22.2,130.1,22.6
			C130.1,22.5,130.1,22.6,130.1,22.6z"/>
		<path class="st3" d="M5.9,60.2H3.7v6H2.2v-6H0V59h5.9V60.2z"/>
		<path class="st3" d="M8.2,61.5c0.3-0.4,0.9-0.7,1.4-0.7c1.2,0,1.8,0.7,1.8,2v3.5H10v-3.4c0-0.2-0.1-0.5-0.2-0.7
			c-0.2-0.2-0.4-0.2-0.7-0.2c-0.4,0-0.7,0.2-0.9,0.5v3.8H6.8v-7.6h1.4V61.5z"/>
		<path class="st3" d="M15.2,66.3c-0.7,0-1.4-0.2-1.9-0.7c-0.5-0.5-0.8-1.2-0.7-1.9v-0.1c0-0.5,0.1-1,0.3-1.5c0.2-0.4,0.5-0.8,0.9-1
			c0.4-0.2,0.8-0.4,1.3-0.3c0.7,0,1.3,0.2,1.7,0.7c0.5,0.6,0.7,1.3,0.6,2V64H14c0,0.3,0.2,0.6,0.4,0.8c0.2,0.2,0.6,0.3,0.9,0.3
			c0.5,0,1-0.2,1.3-0.6l0.7,0.8c-0.2,0.3-0.5,0.6-0.9,0.7C16,66.2,15.6,66.3,15.2,66.3z M15,61.9c-0.3,0-0.5,0.1-0.7,0.3
			c-0.2,0.2-0.3,0.5-0.3,0.8h2v-0.1c0-0.3-0.1-0.5-0.3-0.7C15.5,62,15.3,61.9,15,61.9z"/>
		<path class="st3" d="M23.2,59l1.8,5.3l1.9-5.3h2v7.2h-1.5v-2l0.1-3.4l-2,5.4h-1l-2-5.4l0.1,3.4v2h-1.5V59H23.2z"/>
		<path class="st3" d="M33.3,66.2c-0.1-0.2-0.1-0.3-0.1-0.5c-0.3,0.4-0.8,0.6-1.4,0.6c-0.5,0-0.9-0.1-1.3-0.4
			c-0.3-0.3-0.5-0.7-0.5-1.2c0-0.5,0.2-1,0.6-1.3c0.6-0.3,1.2-0.5,1.9-0.4h0.7v-0.3c0-0.2-0.1-0.4-0.2-0.6c-0.2-0.2-0.4-0.2-0.6-0.2
			c-0.2,0-0.4,0-0.6,0.2c-0.1,0.1-0.2,0.3-0.2,0.5h-1.4c0-0.3,0.1-0.6,0.3-0.9c0.2-0.3,0.5-0.5,0.8-0.6c0.4-0.2,0.8-0.2,1.2-0.2
			c0.6,0,1.1,0.1,1.6,0.5c0.4,0.4,0.6,0.9,0.6,1.4V65c0,0.4,0,0.8,0.2,1.2v0.1H33.3z M32.2,65.2c0.2,0,0.4,0,0.6-0.1
			c0.2-0.1,0.3-0.2,0.4-0.4v-0.9h-0.5c-0.7,0-1.1,0.3-1.1,0.8v0.1c0,0.2,0.1,0.3,0.2,0.4C31.8,65.2,32,65.3,32.2,65.2z"/>
		<path class="st3" d="M35.9,59.5c0-0.2,0.1-0.4,0.2-0.5c0.2-0.1,0.4-0.2,0.6-0.2c0.2,0,0.4,0.1,0.6,0.2c0.3,0.3,0.3,0.8,0,1.1
			c-0.2,0.1-0.4,0.2-0.6,0.2c-0.2,0-0.4-0.1-0.6-0.2C35.9,59.9,35.9,59.7,35.9,59.5z M37.4,66.2H36v-5.4h1.4L37.4,66.2z"/>
		<path class="st3" d="M40.1,60.9v0.6c0.4-0.5,0.9-0.7,1.5-0.7c0.5,0,0.9,0.1,1.3,0.5c0.3,0.4,0.5,1,0.4,1.5v3.5h-1.4v-3.4
			c0-0.2,0-0.5-0.2-0.7c-0.2-0.2-0.4-0.2-0.7-0.2c-0.4,0-0.7,0.2-0.9,0.5v3.8h-1.4v-5.4H40.1z"/>
		<path class="st3" d="M47.1,66.3c-0.7,0-1.4-0.2-1.9-0.7c-0.5-0.5-0.8-1.2-0.7-1.9v-0.1c0-0.5,0.1-1,0.3-1.5c0.2-0.4,0.5-0.8,0.9-1
			c0.4-0.2,0.8-0.4,1.3-0.3c0.7,0,1.3,0.2,1.7,0.7c0.5,0.6,0.7,1.3,0.6,2V64h-3.4c0,0.3,0.2,0.6,0.4,0.8c0.2,0.2,0.6,0.3,0.9,0.3
			c0.5,0,1-0.2,1.3-0.6l0.7,0.8c-0.2,0.3-0.5,0.6-0.9,0.7C48,66.2,47.6,66.3,47.1,66.3z M47,61.9c-0.3,0-0.5,0.1-0.7,0.3
			c-0.2,0.2-0.3,0.5-0.3,0.8h2v-0.1c0-0.3-0.1-0.5-0.3-0.7C47.5,62,47.3,61.9,47,61.9z"/>
		<path class="st3" d="M58.8,63.8c0,0.7-0.3,1.4-0.8,1.8c-0.6,0.5-1.3,0.7-2,0.7c-0.8,0-1.6-0.3-2.2-0.9c-0.6-0.7-0.9-1.6-0.8-2.6
			v-0.4c0-0.6,0.1-1.3,0.4-1.8c0.2-0.5,0.6-0.9,1-1.2c1.1-0.6,2.6-0.5,3.6,0.2c0.5,0.5,0.8,1.2,0.9,1.9h-1.5c0-0.4-0.1-0.7-0.4-1
			c-0.3-0.2-0.6-0.3-1-0.3c-0.4,0-0.9,0.2-1.1,0.5c-0.3,0.5-0.4,1.1-0.4,1.7v0.5c0,0.6,0.1,1.2,0.4,1.7c0.2,0.4,0.7,0.6,1.1,0.5
			c0.4,0,0.7-0.1,1-0.3c0.3-0.3,0.4-0.6,0.4-1L58.8,63.8z"/>
		<path class="st3" d="M59.7,63.5c0-0.5,0.1-1,0.3-1.4c0.2-0.4,0.5-0.8,0.9-1c0.4-0.2,0.9-0.4,1.3-0.3c0.7,0,1.3,0.2,1.8,0.7
			c0.5,0.5,0.8,1.1,0.8,1.8v0.4c0,0.7-0.2,1.4-0.7,2c-1,1-2.7,1-3.7,0C59.9,65,59.6,64.3,59.7,63.5L59.7,63.5z M61.1,63.6
			c0,0.4,0.1,0.8,0.3,1.2c0.2,0.3,0.5,0.4,0.8,0.4c0.3,0,0.6-0.1,0.8-0.4c0.2-0.4,0.3-0.8,0.3-1.3c0-0.4-0.1-0.8-0.3-1.2
			c-0.2-0.3-0.5-0.4-0.8-0.4c-0.3,0-0.6,0.1-0.8,0.4C61.2,62.7,61.1,63.2,61.1,63.6z"/>
		<path class="st3" d="M67.2,60.9l0.1,0.6c0.4-0.5,0.9-0.7,1.5-0.7c0.6-0.1,1.2,0.3,1.4,0.8c0.4-0.5,1-0.8,1.6-0.8
			c0.5,0,1,0.2,1.3,0.5c0.3,0.4,0.5,1,0.4,1.5v3.4h-1.4v-3.4c0-0.2,0-0.5-0.2-0.7c-0.2-0.2-0.4-0.2-0.6-0.2c-0.4,0-0.8,0.2-0.9,0.6
			v3.7H69v-3.4c0-0.2,0-0.5-0.2-0.7c-0.2-0.2-0.4-0.2-0.6-0.2c-0.4,0-0.7,0.2-0.9,0.5v3.8h-1.5v-5.4H67.2z"/>
		<path class="st3" d="M76.2,60.9v0.6c0.4-0.5,1-0.7,1.6-0.7c0.6,0,1.2,0.3,1.4,0.8c0.4-0.5,1-0.8,1.6-0.8c0.5,0,1,0.2,1.3,0.5
			c0.3,0.4,0.5,1,0.4,1.5v3.4h-1.4v-3.4c0-0.2,0-0.5-0.2-0.7c-0.2-0.2-0.4-0.2-0.6-0.2c-0.4,0-0.8,0.2-0.9,0.6v3.7H78v-3.4
			c0-0.2,0-0.5-0.2-0.7c-0.2-0.2-0.4-0.2-0.6-0.2c-0.4,0-0.7,0.2-0.9,0.5v3.8h-1.5v-5.4H76.2z"/>
		<path class="st3" d="M87.1,65.7c-0.4,0.4-0.9,0.7-1.5,0.6c-0.5,0-1-0.1-1.3-0.5c-0.3-0.4-0.5-0.9-0.5-1.5v-3.5h1.4v3.5
			c0,0.6,0.2,0.8,0.8,0.8c0.4,0,0.8-0.2,1-0.5v-3.8h1.4v5.4h-1.3L87.1,65.7z"/>
		<path class="st3" d="M91.1,60.9v0.6c0.4-0.5,0.9-0.7,1.5-0.7c0.5,0,0.9,0.1,1.3,0.5c0.3,0.4,0.5,1,0.4,1.5v3.5h-1.4v-3.4
			c0-0.2,0-0.5-0.2-0.7c-0.2-0.2-0.4-0.2-0.7-0.2c-0.4,0-0.7,0.2-0.9,0.5v3.8h-1.4v-5.4H91.1z"/>
		<path class="st3" d="M95.6,59.5c0-0.2,0.1-0.4,0.2-0.5c0.2-0.1,0.4-0.2,0.6-0.2c0.2,0,0.4,0.1,0.6,0.3c0.3,0.3,0.3,0.7,0,1
			c-0.2,0.1-0.4,0.2-0.6,0.2c-0.2,0-0.4-0.1-0.6-0.2C95.7,59.9,95.6,59.7,95.6,59.5z M97.2,66.2h-1.4v-5.4h1.4V66.2z"/>
		<path class="st3" d="M100.2,59.5v1.3h0.9v1h-0.9v2.7c0,0.1,0,0.3,0.1,0.4c0.1,0.1,0.3,0.2,0.4,0.1c0.1,0,0.3,0,0.4,0v1.1
			c-0.3,0.1-0.6,0.1-0.9,0.1c-0.8,0.1-1.4-0.4-1.5-1.2c0-0.1,0-0.2,0-0.3v-2.9H98v-1.1h0.8v-1.3H100.2z"/>
		<path class="st3" d="M104.2,64.2l1-3.3h1.5l-2.2,6.2l-0.1,0.3c-0.3,0.7-0.9,1.1-1.6,1.1c-0.2,0-0.4,0-0.6-0.1v-1.1h0.2
			c0.2,0,0.4,0,0.6-0.1c0.1-0.1,0.3-0.2,0.3-0.4l0.2-0.4l-1.9-5.4h1.6L104.2,64.2z"/>
		<path class="st3" d="M110.3,66.2V59h2.5c0.7,0,1.4,0.1,2,0.5c0.5,0.4,0.7,0.9,0.7,1.5c0,0.3-0.1,0.7-0.3,0.9
			c-0.2,0.3-0.5,0.5-0.8,0.6c0.4,0.1,0.7,0.3,0.9,0.6c0.2,0.3,0.3,0.6,0.3,1c0.1,0.6-0.2,1.2-0.6,1.6c-0.6,0.4-1.2,0.6-1.9,0.6
			H110.3z M111.8,62h1.1c0.8,0,1.1-0.3,1.1-0.9c0-0.3-0.1-0.5-0.3-0.7c-0.3-0.2-0.6-0.2-0.9-0.2h-1L111.8,62z M111.8,63.1v2h1.2
			c0.3,0,0.6-0.1,0.8-0.2c0.2-0.2,0.3-0.4,0.3-0.7c0-0.7-0.3-1-1-1L111.8,63.1z"/>
		<path class="st3" d="M120,66.2c-0.1-0.2-0.1-0.3-0.2-0.5c-0.3,0.4-0.8,0.6-1.3,0.6c-0.5,0-0.9-0.1-1.3-0.4
			c-0.3-0.3-0.5-0.7-0.5-1.2c0-0.5,0.2-1,0.6-1.3c0.5-0.3,1.2-0.5,1.8-0.4h0.7v-0.3c0-0.2-0.1-0.4-0.2-0.6c-0.2-0.2-0.4-0.2-0.6-0.2
			c-0.2,0-0.4,0-0.6,0.2c-0.1,0.1-0.2,0.3-0.2,0.5h-1.4c0-0.3,0.1-0.6,0.3-0.9c0.2-0.3,0.5-0.5,0.8-0.6c0.4-0.2,0.8-0.2,1.2-0.2
			c0.6,0,1.1,0.1,1.6,0.5c0.4,0.4,0.6,0.9,0.6,1.4V65c0,0.4,0.1,0.8,0.2,1.2v0.1H120z M118.8,65.2c0.2,0,0.4,0,0.6-0.1
			c0.2-0.1,0.3-0.2,0.4-0.4v-0.9h-0.5c-0.7,0-1.1,0.3-1.2,0.8v0.1c0,0.2,0.1,0.3,0.2,0.4C118.4,65.2,118.6,65.3,118.8,65.2
			L118.8,65.2z"/>
		<path class="st3" d="M123.8,60.9l0.1,0.6c0.4-0.5,0.9-0.7,1.5-0.7c0.5,0,0.9,0.1,1.3,0.5c0.3,0.4,0.5,1,0.4,1.5v3.5h-1.4v-3.4
			c0-0.2,0-0.5-0.2-0.7c-0.2-0.2-0.4-0.2-0.7-0.2c-0.4,0-0.7,0.2-0.9,0.5v3.8h-1.4v-5.4H123.8z"/>
		<path class="st3" d="M130.3,64.1l-0.5,0.5v1.6h-1.4v-7.6h1.4v4.2l0.3-0.3l1.4-1.6h1.7l-1.9,2.2l2.1,3.1h-1.6L130.3,64.1z"/>
		<path class="st3" d="M141.2,63.3h-2.9v3h-1.5V59h4.7v1.2h-3.2v1.9h2.9V63.3z"/>
		<path class="st3" d="M145.4,66.2c-0.1-0.2-0.1-0.3-0.1-0.5c-0.3,0.4-0.8,0.6-1.4,0.6c-0.5,0-0.9-0.1-1.3-0.4
			c-0.3-0.3-0.5-0.7-0.5-1.2c0-0.5,0.2-1,0.6-1.3c0.5-0.3,1.2-0.5,1.8-0.5h0.7v-0.3c0-0.2-0.1-0.4-0.2-0.6c-0.2-0.2-0.4-0.2-0.6-0.2
			c-0.2,0-0.4,0-0.6,0.2c-0.1,0.1-0.2,0.3-0.2,0.5h-1.4c0-0.3,0.1-0.6,0.3-0.9c0.2-0.3,0.5-0.5,0.8-0.6c0.4-0.2,0.8-0.2,1.2-0.2
			c0.6,0,1.1,0.1,1.6,0.5c0.4,0.4,0.6,0.9,0.6,1.4V65c0,0.4,0,0.8,0.2,1.2v0.1H145.4z M144.3,65.2c0.2,0,0.4,0,0.6-0.1
			c0.2-0.1,0.3-0.2,0.4-0.4v-0.9h-0.5c-0.7,0-1.1,0.3-1.1,0.8v0.1c0,0.2,0.1,0.3,0.2,0.4C143.9,65.2,144.1,65.3,144.3,65.2z"/>
		<path class="st3" d="M149.3,60.9v0.6c0.4-0.5,0.9-0.7,1.5-0.7c0.6-0.1,1.2,0.3,1.4,0.8c0.4-0.5,1-0.8,1.6-0.8c0.5,0,1,0.1,1.3,0.5
			c0.3,0.4,0.5,1,0.4,1.5v3.4h-1.4v-3.4c0-0.2,0-0.5-0.2-0.7c-0.2-0.2-0.4-0.2-0.6-0.2c-0.4,0-0.8,0.2-0.9,0.6v3.7h-1.4v-3.4
			c0-0.2,0-0.5-0.2-0.7c-0.2-0.2-0.4-0.2-0.6-0.2c-0.4,0-0.7,0.2-0.9,0.5v3.8H148v-5.4H149.3z"/>
		<path class="st3" d="M157,59.5c0-0.2,0.1-0.4,0.2-0.5c0.3-0.3,0.8-0.3,1.2,0c0.1,0.1,0.2,0.3,0.2,0.5c0,0.2-0.1,0.4-0.2,0.5
			c-0.2,0.1-0.4,0.2-0.6,0.2c-0.2,0-0.4-0.1-0.6-0.2C157.1,59.9,157,59.7,157,59.5z M158.5,66.2h-1.4v-5.4h1.4V66.2z"/>
		<path class="st3" d="M161.4,66.2h-1.4v-7.6h1.4V66.2z"/>
		<path class="st3" d="M164.8,64.2l1-3.3h1.5l-2.2,6.2l-0.1,0.3c-0.3,0.7-0.9,1.1-1.6,1.1c-0.2,0-0.4,0-0.6-0.1v-1.1h0.2
			c0.2,0,0.4,0,0.6-0.1c0.1-0.1,0.3-0.2,0.3-0.4l0.2-0.4l-1.9-5.4h1.5L164.8,64.2z"/>
	</g>
</g>
</svg>
