<?xml version="1.0" encoding="utf-8"?>
<!-- Generator: Adobe Illustrator 24.0.3, SVG Export Plug-In . SVG Version: 6.00 Build 0)  -->
<svg version="1.1" id="Layer_1" xmlns="http://www.w3.org/2000/svg" xmlns:xlink="http://www.w3.org/1999/xlink" x="0px" y="0px"
	 viewBox="0 0 248.6 73.7" style="enable-background:new 0 0 248.6 73.7;" xml:space="preserve">
<style type="text/css">
	.st0{fill:#FFFFFF;}
</style>
<g>
	<g>
		<path class="st0" d="M123.7,28.4l-11,1.9l0.4,2.2l0,0l2.7,15.2c0,0.2,0.2,0.4,0.4,0.4l7.4,1.2c0,0-0.1-2.2,1.7-3.8
			c0.6-0.5,0.9-1.3,0.8-2c-0.1-2-1.8-4.2-2.3-5c-0.1-0.1-0.3-0.1-0.4,0c-0.6,0.8-2.3,3.2-2.3,5.2c0,0.5,0.2,0.9,0.4,1.2
			c0,0-1.8-0.8-1.8-2.7c0-3.7,3.5-6.4,3.9-6.4s3.9,2.7,3.9,6.4c0,0.4-0.1,0.8-0.2,1.1c0.5-0.7,0.9-1.5,0.9-2.5
			c0-4.1-3.6-7.7-4.5-7.7s-4.5,3.6-4.5,7.7c0,0.2-0.7-5.4,2.2-8.1C124.2,30,123.7,28.4,123.7,28.4"/>
	</g>
	<g>
		<path class="st0" d="M135.7,52.7l-11.9,2l-12-2c-0.3,0-0.6,0.2-0.6,0.5V55c0,0.8,0.6,1.5,1.4,1.7l11.1,2l11.1-2
			c0.8-0.2,1.4-0.9,1.4-1.7v-1.8C136.2,52.9,136,52.7,135.7,52.7"/>
	</g>
	<g>
		<path class="st0" d="M108.6,25.3c-0.7,0.1-1.2,0.7-1.2,1.4v1.5c0,0.6,0.5,1,1.1,0.9l15.2-2.6l15.2,2.6c0.6,0.1,1.1-0.3,1.1-0.9
			v-1.5c0-0.7-0.5-1.3-1.2-1.4l-15.2-3.2L108.6,25.3z"/>
	</g>
	<g>
		<path class="st0" d="M137.6,30.7l-0.8-0.1c-0.3,0-0.5,0.1-0.6,0.4L133,49.2c0,0.2-0.2,0.4-0.4,0.4l-8.7,1.5c-0.1,0-0.3,0-0.4,0
			l-8.7-1.5c-0.2,0-0.4-0.2-0.4-0.4L111.1,31c-0.1-0.6-0.8-0.4-0.8-0.4l-0.6,0.1c-0.3,0-0.4,0.3-0.4,0.6l3.5,19.5
			c0,0.2,0.2,0.4,0.4,0.4l10.2,1.7c0.1,0,0.3,0,0.4,0l10.2-1.7c0.2,0,0.4-0.2,0.4-0.4l3.5-19.5C138.1,31,137.9,30.8,137.6,30.7"/>
	</g>
</g>
<g>
	<g>
		<path class="st0" d="M122,13.2l-3.7,1.6c-0.6,0.3-1,0.8-1.2,1.4c-0.3,1.3-1.2,2.4-2.5,2.9l-4,1.6c-0.4,0.2-0.7,0.5-0.7,1v1.5
			l13.7-2.9h0.2l13.6,2.8v-1.5c0-0.4-0.3-0.8-0.7-1l-4-1.6c-1.2-0.5-2.2-1.6-2.5-2.9c-0.1-0.6-0.6-1.2-1.1-1.4l-3.7-1.6
			c1.1-0.9,1.6-2.5,0.6-4.1c-0.2-0.3-0.4-0.5-0.6-0.6c-2.3-1.4-4.7,0.2-4.7,2.4C120.8,11.9,121.3,12.7,122,13.2"/>
	</g>
	<g>
		<path class="st0" d="M120.3,0c-18,0-32.6,14.6-32.6,32.6v41.1h41.1c18,0,32.6-14.6,32.6-32.6V0H120.3z M157.4,41.4
			c0,15.7-12.8,28.5-28.5,28.5l0,0v-2.5c0-2.1,1.1-4,2.8-5.1l0.3-0.2c0.4-0.2,0.6-0.6,0.6-1.1v-2l-8.8,1.5L115,59v2
			c0,0.4,0.2,0.8,0.6,1.1l0.3,0.2c1.7,1.1,2.8,3,2.8,5.1v2.5H91.8v-37c0-15.7,12.8-28.5,28.5-28.5h37L157.4,41.4L157.4,41.4z"/>
	</g>
</g>
<g>
	<g>
		<path class="st0" d="M49.6,40.7c0,0.1,0.2,0.1,0.2,0.1c0.1,0,0.2,0,0.2,0l0,0c0,0,4.9,1.1,2.3,2c-0.1,0-0.3,0.1-0.4,0.1
			c-0.1,0-0.2,0.1-0.3,0.1c-1,0.3-2.1,0.5-2.5,0.6c-3,0.6-6.2,0.8-9.2,0.6c-3.8-0.2-7.1-1.2-10.2-3c-1.1-0.7-2.5-1-3.8-0.8
			C20.2,41,17,42,17,43.4c0,4.4,8,12.2,20,12.2c2.8,0,5.5-0.4,8.1-1.2c2.3-0.7,4.5-1.7,6.6-3c2-1.3,3.8-2.8,5.1-4.7
			c0.3-0.4,0.5-0.8,0.7-1.2c0.3-0.6,0.6-1.4,0.5-2.1c0-0.1,0-0.1,0-0.2c0,0,0,0,0-0.1c-0.1-0.2-0.3-0.4-0.5-0.6
			c-1-0.7-2.3-1-3.5-1.2c-1.4-0.3-2.8-0.5-4.2-0.6C49.7,40.7,49.6,40.6,49.6,40.7"/>
	</g>
	<g>
		<path class="st0" d="M22.8,31.7c0,3.9,5.8,10.1,14,10.1c7.3,0,13.1-4.9,14.2-8.8c0.1-0.5,0.2-0.9,0.2-1.4c0-0.8-1-1.2-1.6-1.4
			c-1.6-0.7-3.4-0.9-5-1.1c-0.4-0.1-0.1,0.1-0.1,0.1c0.4,0.1,0.8,0.2,1.2,0.4c1.5,0.5-0.9,1.2-1,1.3c-1.7,0.4-3.5,0.4-5.2,0.2
			c-1.8-0.2-4.1-0.9-5.4-1.7c-0.7-0.4-1.5-0.6-2.2-0.5C26.7,29.3,22.8,30.2,22.8,31.7"/>
	</g>
	<g>
		<path class="st0" d="M33.2,0.1c-18,0-32.6,14.6-32.6,32.6v41.1h41.1c17.9,0,32.5-14.6,32.5-32.5V0.1H33.2z M70.2,41.5
			C70.2,57.2,57.5,70,41.7,70h-37V33c0-15.7,12.7-28.5,28.5-28.5h37V41.5z"/>
	</g>
	<g>
		<path class="st0" d="M37.4,16.9c3.5,0,6.3,2.8,6.3,6.3s-2.8,6.3-6.3,6.3s-6.3-2.8-6.3-6.3S34,16.9,37.4,16.9"/>
	</g>
	<g>
		<path class="st0" d="M207.5,0.1c-18,0-32.6,14.6-32.6,32.6v41.1H216c18,0,32.6-14.6,32.6-32.6V0.1H207.5z M244.5,41.5
			c0,15.7-12.8,28.5-28.5,28.5h-37V33c0-15.7,12.8-28.5,28.5-28.5h37V41.5L244.5,41.5z"/>
	</g>
	<g>
		<path class="st0" d="M202.4,23.4c-2.3,2.7-3.6,4.4-5.5,7.3c-0.3,0.4-0.2,1,0.2,1.3c5.2,4.1,10.2,9.1,14.4,14.3
			c0.4,0.5,1.2,0.5,1.6,0c1.9-2.4,3.2-3.8,5.4-6.1c0.3-0.3,0.4-0.8,0.1-1.2c-4.2-5.6-9.3-11-14.7-15.6
			C203.4,22.9,202.8,22.9,202.4,23.4"/>
	</g>
	<g>
		<path class="st0" d="M220.5,23.2c-2.6,2.3-4.1,3.8-6.5,6.2c-0.3,0.4-0.4,0.9,0,1.2c5.3,6.5,9.6,12.5,13.9,19.6
			c0.3,0.5,1.1,0.7,1.5,0.2c2.2-2,3.7-3.2,6.2-5c0.4-0.3,0.5-0.8,0.3-1.2c-3.8-7.5-8.5-14.6-14-21.1
			C221.6,22.9,220.9,22.9,220.5,23.2"/>
	</g>
</g>
<g>
	<g>
		<path class="st0" d="M194.7,33.8c-2.6,4-4,6.4-6.2,10.7c-0.2,0.4-0.1,0.9,0.3,1.2c2.5,1.8,4,3,6.1,4.9c0.5,0.4,1.3,0.3,1.6-0.3
			c2.1-3.8,3.5-6.1,6.2-9.9c0.3-0.4,0.2-0.9-0.1-1.2c-2.3-2.2-3.9-3.6-6.4-5.6C195.7,33.2,195,33.3,194.7,33.8"/>
	</g>
</g>
</svg>
